<?xml version="1.0" encoding="UTF-8"?>
<svg width="14px" height="14px" viewBox="0 0 14 14" version="1.1" xmlns="http://www.w3.org/2000/svg" xmlns:xlink="http://www.w3.org/1999/xlink">
    <!-- Generator: Sketch 64 (93537) - https://sketch.com -->
    <title>双模式切换</title>
    <desc>Created with Sketch.</desc>
    <g id="资产管理" stroke="none" stroke-width="1" fill="none" fill-rule="evenodd">
        <g id="DashBoardS3" transform="translate(-677.000000, -266.000000)" fill-rule="nonzero">
            <g id="双模式切换" transform="translate(677.000000, 266.000000)">
                <rect id="矩形" fill="#000000" opacity="0" x="0" y="0" width="14" height="14"></rect>
                <path d="M12.6628906,7.721875 L7.66582031,7.72050781 C7.525,7.72597656 7.39238281,7.78613281 7.29667969,7.88867187 C7.20097656,7.99121094 7.15039063,8.12792969 7.15585938,8.26875 L7.15585938,13.0580078 C7.14355469,13.3505859 7.37050781,13.5966797 7.66308594,13.6103516 L12.6615234,13.6103516 C12.9486328,13.6007812 13.1742188,13.3601562 13.1660156,13.0716797 L13.1660156,8.27285156 C13.1742188,7.984375 12.9527344,7.73964844 12.6628906,7.721875 L12.6628906,7.721875 Z M12.2636719,12.7107422 L8.05683594,12.7107422 L8.05683594,8.62148437 L12.2636719,8.62148437 L12.2636719,12.7107422 Z M6.75664062,0.544140625 C6.6609375,0.440234375 6.52832031,0.380078125 6.38886719,0.374609375 L1.39316406,0.374609375 C1.10605469,0.384179687 0.88046875,0.624804687 0.890039062,0.91328125 L0.890039062,5.69160156 C0.873632812,5.98007813 1.09375,6.22617188 1.38222656,6.24257813 L6.38886719,6.24257813 C6.5296875,6.23710938 6.66230469,6.17695312 6.75800781,6.07441406 C6.85371094,5.971875 6.90429688,5.83515625 6.89882813,5.69433594 L6.89882813,0.925585937 C6.90292969,0.784765625 6.85234375,0.648046875 6.75664063,0.544140625 L6.75664062,0.544140625 Z M5.99648437,5.34160156 L1.78964844,5.34160156 L1.78964844,1.27558594 L5.99511719,1.27558594 L5.99511719,5.34160156 L5.99648437,5.34160156 Z M10.8458984,4.16992187 L11.6470703,4.16992187 C11.6607422,4.16992187 11.6730469,4.16445312 11.6826172,4.15351562 C11.6908203,4.14257812 11.6949219,4.12890625 11.6935547,4.11660156 C11.4419922,2.60449219 10.1486328,1.465625 8.61738281,1.40957031 C8.39042969,1.36035156 8.22226562,1.159375 8.21816406,0.925585937 C8.22636719,0.6453125 8.43691406,0.441601563 8.69667969,0.441601563 C10.7337891,0.56328125 12.3675781,2.11367187 12.5945312,4.12890625 C12.5972656,4.15214844 12.6164062,4.16992187 12.6396484,4.16992187 L13.5488281,4.16992187 L12.1966797,6.18242187 L10.8458984,4.16992187 Z M5.36894531,13.5228516 C5.35253906,13.5228516 5.33613281,13.5214844 5.31972656,13.5201172 C3.09667969,13.3847656 1.37539062,11.5349609 1.4,9.30917969 C1.4,9.296875 1.39589844,9.28457031 1.38632812,9.27636719 C1.378125,9.26816406 1.36582031,9.26269531 1.35351562,9.26269531 L0.485351562,9.26269531 L1.8375,7.25019531 L3.18964844,9.26269531 L2.32695313,9.26269531 C2.30097656,9.26269531 2.28046875,9.28320313 2.28046875,9.30917969 C2.27636719,11.0742188 3.65585937,12.4988281 5.41953125,12.5535156 C5.68339844,12.5794922 5.87753906,12.81875 5.8515625,13.0853516 C5.82558594,13.3355469 5.61777344,13.5228516 5.36894531,13.5228516 Z" id="形状" fill="#0072FF"></path>
            </g>
        </g>
    </g>
</svg>